# xmcd CD database file
#
# Track frame offsets:
#	150
#	22015
#	45675
#	67537
#
# Disc length: 1214 seconds
#
# Revision: 2
# Processed by: cddbd v1.5PL3 Copyright (c) Steve Scherf et al.
# Submitted via: CDex 1.50beta9
#
DISCID=2804bc04
DTITLE=キリンジ - 雨は毛布のように
DYEAR=2001
DGENRE=Japanese Pop
TTITLE0=雨は毛布のように
TTITLE1=雨は毛布のように - Doshaburi Version -
TTITLE2=雨は毛布のように [Instrumental]
TTITLE3=雨は毛布のように - Doshaburi Version - [Instrumental]
EXTD=YEAR: 2001
EXTT0=
EXTT1=
EXTT2=
EXTT3=
PLAYORDER=
